[Header]
FileType HTR
DataType HTRS
FileVersion 1
NumSegments 64
NumFrames 3
DataFrameRate 24
EulerRotationOrder ZYX
CalibrationUnits mm
RotationUnits Degrees
GlobalAxisofGravity Y
BoneLengthAxis Y
ScaleFactor 1.0
[SegmentNames&Hierarchy]
Hips	GLOBAL
Spine	Hips
Spine1	Spine
Spine2	Spine1
Neck	Spine2
Head	Neck
LeftEye	Head
RightEye	Head
LeftShoulder	Spine2
LeftArm	LeftShoulder
LeftForeArm	LeftArm
LeftHand	LeftForeArm
LeftHandThumb1	LeftHand
LeftHandThumb2	LeftHandThumb1
LeftHandThumb3	LeftHandThumb2
LeftHandThumb4	LeftHandThumb3
LeftHandIndex1	LeftHand
LeftHandIndex2	LeftHandIndex1
LeftHandIndex3	LeftHandIndex2
LeftHandIndex4	LeftHandIndex3
LeftHandMiddle1	LeftHand
LeftHandMiddle2	LeftHandMiddle1
LeftHandMiddle3	LeftHandMiddle2
LeftHandMiddle4	LeftHandMiddle3
LeftHandRing1	LeftHand
LeftHandRing2	LeftHandRing1
LeftHandRing3	LeftHandRing2
LeftHandRing4	LeftHandRing3
LeftHandPinky1	LeftHand
LeftHandPinky2	LeftHandPinky1
LeftHandPinky3	LeftHandPinky2
LeftHandPinky4	LeftHandPinky3
RightShoulder	Spine2
RightArm	RightShoulder
RightForeArm	RightArm
RightHand	RightForeArm
RightHandPinky1	RightHand
RightHandPinky2	RightHandPinky1
RightHandPinky3	RightHandPinky2
RightHandPinky4	RightHandPinky3
RightHandRing1	RightHand
RightHandRing2	RightHandRing1
RightHandRing3	RightHandRing2
RightHandRing4	RightHandRing3
RightHandMiddle1	RightHand
RightHandMiddle2	RightHandMiddle1
RightHandMiddle3	RightHandMiddle2
RightHandMiddle4	RightHandMiddle3
RightHandIndex1	RightHand
RightHandIndex2	RightHandIndex1
RightHandIndex3	RightHandIndex2
RightHandIndex4	RightHandIndex3
RightHandThumb1	RightHand
RightHandThumb2	RightHandThumb1
RightHandThumb3	RightHandThumb2
RightHandThumb4	RightHandThumb3
LeftUpLeg	Hips
LeftLeg	LeftUpLeg
LeftFoot	LeftLeg
LeftToeBase	LeftFoot
RightUpLeg	Hips
RightLeg	RightUpLeg
RightFoot	RightLeg
RightToeBase	RightFoot
[BasePosition]
Hips	0	0	0	0	0	0	1
Spine	0	0	0	0	0	0	1
Spine1	0	0	0	0	0	0	1
Spine2	0	0	0	0	0	0	1
Neck	0	0	0	0	0	0	1
Head	0	0	0	0	0	0	1
LeftEye	0	0	0	0	0	0	1
RightEye	0	0	0	0	0	0	1
LeftShoulder	0	0	0	0	0	0	1
LeftArm	0	0	0	0	0	0	1
LeftForeArm	0	0	0	0	0	0	1
LeftHand	0	0	0	0	0	0	1
LeftHandThumb1	0	0	0	0	0	0	1
LeftHandThumb2	0	0	0	0	0	0	1
LeftHandThumb3	0	0	0	0	0	0	1
LeftHandThumb4	0	0	0	0	0	0	1
LeftHandIndex1	0	0	0	0	0	0	1
LeftHandIndex2	0	0	0	0	0	0	1
LeftHandIndex3	0	0	0	0	0	0	1
LeftHandIndex4	0	0	0	0	0	0	1
LeftHandMiddle1	0	0	0	0	0	0	1
LeftHandMiddle2	0	0	0	0	0	0	1
LeftHandMiddle3	0	0	0	0	0	0	1
LeftHandMiddle4	0	0	0	0	0	0	1
LeftHandRing1	0	0	0	0	0	0	1
LeftHandRing2	0	0	0	0	0	0	1
LeftHandRing3	0	0	0	0	0	0	1
LeftHandRing4	0	0	0	0	0	0	1
LeftHandPinky1	0	0	0	0	0	0	1
LeftHandPinky2	0	0	0	0	0	0	1
LeftHandPinky3	0	0	0	0	0	0	1
LeftHandPinky4	0	0	0	0	0	0	1
RightShoulder	0	0	0	0	0	0	1
RightArm	0	0	0	0	0	0	1
RightForeArm	0	0	0	0	0	0	1
RightHand	0	0	0	0	0	0	1
RightHandPinky1	0	0	0	0	0	0	1
RightHandPinky2	0	0	0	0	0	0	1
RightHandPinky3	0	0	0	0	0	0	1
RightHandPinky4	0	0	0	0	0	0	1
RightHandRing1	0	0	0	0	0	0	1
RightHandRing2	0	0	0	0	0	0	1
RightHandRing3	0	0	0	0	0	0	1
RightHandRing4	0	0	0	0	0	0	1
RightHandMiddle1	0	0	0	0	0	0	1
RightHandMiddle2	0	0	0	0	0	0	1
RightHandMiddle3	0	0	0	0	0	0	1
RightHandMiddle4	0	0	0	0	0	0	1
RightHandIndex1	0	0	0	0	0	0	1
RightHandIndex2	0	0	0	0	0	0	1
RightHandIndex3	0	0	0	0	0	0	1
RightHandIndex4	0	0	0	0	0	0	1
RightHandThumb1	0	0	0	0	0	0	1
RightHandThumb2	0	0	0	0	0	0	1
RightHandThumb3	0	0	0	0	0	0	1
RightHandThumb4	0	0	0	0	0	0	1
LeftUpLeg	0	0	0	0	0	0	1
LeftLeg	0	0	0	0	0	0	1
LeftFoot	0	0	0	0	0	0	1
LeftToeBase	0	0	0	0	0	0	1
RightUpLeg	0	0	0	0	0	0	1
RightLeg	0	0	0	0	0	0	1
RightFoot	0	0	0	0	0	0	1
RightToeBase	0	0	0	0	0	0	1
[Hips]
15	1016.432556	1000.521606	9.635314941	6.455410957	68.25523376	1.125872374	1.0
16	1087.011597	1001.315002	12.44914055	6.092190266	70.91319275	0.326261729	1.0
17	1161.546753	982.7859497	15.0046587	11.00876141	75.90583038	5.206041336	1.0
[Spine]
15	0	101.8159943	1.315000057	5.52268362	-9.07694149	-0.3992058039	1.0
16	0	101.8159943	1.315000057	5.271746635	-11.05665398	0.3979752958	1.0
17	0	101.8159943	1.315000057	4.898559093	-15.20062828	0.01099741459	1.0
[Spine1]
15	0	100.8349991	-10.00800037	3.888139725	-5.25563097	0.288718164	1.0
16	0	100.8349991	-10.00800037	3.690202236	-5.688785076	0.6736974716	1.0
17	0	100.8349991	-10.00800037	3.340123415	-6.351698399	0.4701571167	1.0
[Spine2]
15	0	91	-13.73399925	3.839698315	-5.291697979	0.2839244902	1.0
16	0	91	-13.73399925	3.625055313	-5.733763218	0.6811783314	1.0
17	0	91	-13.73399925	3.261279821	-6.395820618	0.5156596303	1.0
[Neck]
15	0	166.7169952	-25.16200066	4.844920158	-5.446721554	-2.085507631	1.0
16	0	166.7169952	-25.16200066	4.911290646	-5.463425636	-1.970799327	1.0
17	0	166.7169952	-25.16200066	4.6155653	-5.544818878	-1.783479929	1.0
[Head]
15	0	96.17900085	16.84999847	-11.29850006	-33.73411179	12.57259464	1.0
16	0	96.17900085	16.84999847	-11.06097794	-33.82128143	12.35721779	1.0
17	0	96.17900085	16.84999847	-11.43296242	-34.20112991	13.42253971	1.0
[LeftEye]
15	30.6760006	64.09500122	92.83599854	0	0	0	1.0
16	30.6760006	64.09500122	92.83599854	0	0	0	1.0
17	30.6760006	64.09500122	92.83599854	0	0	0	1.0
[RightEye]
15	-30.6760006	64.09500122	92.83499908	0	0	0	1.0
16	-30.6760006	64.09500122	92.83499908	0	0	0	1.0
17	-30.6760006	64.09500122	92.83499908	0	0	0	1.0
[LeftShoulder]
15	45.70400238	109.4599991	-26.28000069	-1.999138117	-7.481466293	-9.293023109	1.0
16	45.70400238	109.4599991	-26.28000069	-2.69577837	-8.261259079	-9.003306389	1.0
17	45.70400238	109.4599991	-26.28000069	-2.951955557	-9.311143875	-8.937731743	1.0
[LeftArm]
15	105.923996	-5.24600029	-22.32099915	27.3257637	-17.66145134	-58.58766556	1.0
16	105.923996	-5.24600029	-22.32099915	27.51337433	-20.04232788	-57.48358917	1.0
17	105.923996	-5.24600029	-22.32099915	30.24399376	-21.93590546	-55.36450577	1.0
[LeftForeArm]
15	278.414978	-0.0009999999311	0	-2.219457883e-06	-15.14702988	-0.0001950691367	1.0
16	278.414978	-0.0009999999311	0	-2.563463568e-06	-18.08548737	-0.0001928547426	1.0
17	278.414978	-0.0009999999311	0	-1.534257592e-07	-20.97366142	-0.000211899096	1.0
[LeftHand]
15	283.2879944	0	0	2.498054028	2.11251235	22.39723015	1.0
16	283.2879944	0	0	1.088824153	1.501565576	23.77488899	1.0
17	283.2879944	0	0	-0.5158362389	1.570179105	24.98277664	1.0
[LeftHandThumb1]
15	24.6609993	-15.75	26.8239994	0.9464570284	1.151123047	0.2541034818	1.0
16	24.6609993	-15.75	26.8239994	0.9464570284	1.151123047	0.2541034818	1.0
17	24.6609993	-15.75	26.8239994	0.9464570284	1.151123047	0.2541034818	1.0
[LeftHandThumb2]
15	32.29800034	-18.64699936	18.64699936	14.26376057	3.51424861	18.67174149	1.0
16	32.29800034	-18.64699936	18.64699936	12.62257481	3.747211695	19.12961578	1.0
17	32.29800034	-18.64699936	18.64699936	9.977018356	3.252372742	18.9859848	1.0
[LeftHandThumb3]
15	26.52600098	-15.31499958	15.31499958	-2.993811846	-12.83229828	22.52226067	1.0
16	26.52600098	-15.31499958	15.31499958	-2.364340544	-11.29576206	22.11920357	1.0
17	26.52600098	-15.31499958	15.31499958	-1.985794425	-10.38651657	21.89914894	1.0
[LeftHandThumb4]
15	19.54599953	-11.28499985	11.28499985	0	0	0	1.0
16	19.54599953	-11.28499985	11.28499985	0	0	0	1.0
17	19.54599953	-11.28499985	11.28499985	0	0	0	1.0
[LeftHandIndex1]
15	91.09299469	-5.170999527	22.60099792	-1.449694157	-1.268782139	-25.36716843	1.0
16	91.09299469	-5.170999527	22.60099792	-1.357970595	-1.995932698	-23.7708416	1.0
17	91.09299469	-5.170999527	22.60099792	-1.283744574	-2.331536055	-22.86364174	1.0
[LeftHandIndex2]
15	36.76399994	0	0	-0.1280843467	1.216845274	-12.01712036	1.0
16	36.76399994	0	0	-0.1274719834	1.213974237	-11.98832989	1.0
17	36.76399994	0	0	-0.1272455603	1.212920666	-11.97778988	1.0
[LeftHandIndex3]
15	28.83100128	0	0	-0.1332847625	1.241010904	-12.25952244	1.0
16	28.83100128	0	0	-0.1326662898	1.238168478	-12.23099518	1.0
17	28.83100128	0	0	-0.1324581355	1.237196207	-12.22120953	1.0
[LeftHandIndex4]
15	23.92700005	0	0	0	0	0	1.0
16	23.92700005	0	0	0	0	0	1.0
17	23.92700005	0	0	0	0	0	1.0
[LeftHandMiddle1]
15	95.33399963	0	0	-2.033302784	3.48964715	-31.47425842	1.0
16	95.33399963	0	0	-1.937822819	2.943968773	-30.40987015	1.0
17	95.33399963	0	0	-1.855182648	2.626559496	-29.46817207	1.0
[LeftHandMiddle2]
15	36.98199844	0	0	-0.302513957	1.855668664	-18.51609612	1.0
16	36.98199844	0	0	-0.3012575805	1.851926923	-18.47738266	1.0
17	36.98199844	0	0	-0.3008128405	1.85060668	-18.46365929	1.0
[LeftHandMiddle3]
15	29.50900078	0	0	-0.1088277176	1.122592568	-11.07379913	1.0
16	29.50900078	0	0	-0.1080691442	1.118718386	-11.03508472	1.0
17	29.50900078	0	0	-0.1078000739	1.117338777	-11.02129364	1.0
[LeftHandMiddle4]
15	28.3390007	0	0	0	0	0	1.0
16	28.3390007	0	0	0	0	0	1.0
17	28.3390007	0	0	0	0	0	1.0
[LeftHandRing1]
15	91.04499817	-0.4390000105	-18.65100098	-2.215417862	7.577847004	-33.51402664	1.0
16	91.04499817	-0.4390000105	-18.65100098	-2.110558987	7.395301342	-32.36288071	1.0
17	91.04499817	-0.4390000105	-18.65100098	-2.013696432	7.161991119	-31.27265167	1.0
[LeftHandRing2]
15	31.54000092	0	0	-0.4740326405	2.305083036	-23.23832703	1.0
16	31.54000092	0	0	-0.4759424627	2.309530973	-23.28583908	1.0
17	31.54000092	0	0	-0.4744054377	2.305956602	-23.2476387	1.0
[LeftHandRing3]
15	29.37700081	0	0	-0.3414196968	1.967963219	-19.68222809	1.0
16	29.37700081	0	0	-0.3430920243	1.97264564	-19.73102379	1.0
17	29.37700081	0	0	-0.3418059051	1.969058871	-19.69363022	1.0
[LeftHandRing4]
15	26.47500038	0	0	0	0	0	1.0
16	26.47500038	0	0	0	0	0	1.0
17	26.47500038	0	0	0	0	0	1.0
[LeftHandPinky1]
15	80.77799988	-4.887000084	-38.06099701	-2.506457329	5.121888161	-36.5580368	1.0
16	80.77799988	-4.887000084	-38.06099701	-2.447693825	4.692667484	-36.01070404	1.0
17	80.77799988	-4.887000084	-38.06099701	-2.409470081	4.0240798	-35.609272	1.0
[LeftHandPinky2]
15	36	0	0	-0.5070417523	2.380422115	-24.0457859	1.0
16	36	0	0	-0.5088093281	2.384387732	-24.08840752	1.0
17	36	0	0	-0.503528893	2.372543335	-23.96110725	1.0
[LeftHandPinky3]
15	21.14200211	0	0	-0.2238014638	1.601686716	-15.90728664	1.0
16	21.14200211	0	0	-0.2250774503	1.606176734	-15.95307255	1.0
17	21.14200211	0	0	-0.2214362174	1.593393445	-15.82270908	1.0
[LeftHandPinky4]
15	19.75699997	0	0	0	0	0	1.0
16	19.75699997	0	0	0	0	0	1.0
17	19.75699997	0	0	0	0	0	1.0
[RightShoulder]
15	-45.70000076	109.4620056	-26.28000069	1.120155215	-3.358433723	7.508802414	1.0
16	-45.70000076	109.4620056	-26.28000069	1.302309155	-5.080765247	7.382596016	1.0
17	-45.70000076	109.4620056	-26.28000069	1.363895297	-6.487514019	7.436330318	1.0
[RightArm]
15	-105.9280014	-5.248000145	-22.32099915	17.77977753	6.561831951	67.81962585	1.0
16	-105.9280014	-5.248000145	-22.32099915	17.47563171	3.372051477	66.55466461	1.0
17	-105.9280014	-5.248000145	-22.32099915	16.38047218	-1.234909058	65.96439362	1.0
[RightForeArm]
15	-278.414978	0	0	-1.086890916e-05	27.09411621	2.64610162e-06	1.0
16	-278.414978	0	0	-1.319432431e-05	24.12843704	3.096682804e-06	1.0
17	-278.414978	0	0	-8.000771459e-07	23.08564377	-4.047109883e-07	1.0
[RightHand]
15	-283.2879944	0	0.0009999999311	7.215285778	10.90823555	-3.303596258	1.0
16	-283.2879944	0	0.0009999999311	6.686628342	5.413486481	-2.505874872	1.0
17	-283.2879944	0	0.0009999999311	7.671833992	0.2265156806	-1.744296193	1.0
[RightHandPinky1]
15	-80.76699829	-4.885000229	-38.06000137	-1.593020678	-3.247508049	28.10401917	1.0
16	-80.76699829	-4.885000229	-38.06000137	-1.597946525	-2.971831799	28.17436218	1.0
17	-80.76699829	-4.885000229	-38.06000137	-1.637158513	-2.393027782	28.71729851	1.0
[RightHandPinky2]
15	-36	0	0.0009999999311	-0.3654172719	-1.804605484	22.91194916	1.0
16	-36	0	0.0009999999311	-0.3658126593	-1.805534005	22.92446327	1.0
17	-36	0	0.0009999999311	-0.3668906391	-1.808092356	22.9586277	1.0
[RightHandPinky3]
15	-21.14200211	0	0	-0.4189693332	-1.926486135	24.5377121	1.0
16	-21.14200211	0	0	-0.419090867	-1.926739097	24.54125786	1.0
17	-21.14200211	0	0	-0.4199734628	-1.928668499	24.56737518	1.0
[RightHandPinky4]
15	-19.75699997	0	0	0	0	0	1.0
16	-19.75699997	0	0	0	0	0	1.0
17	-19.75699997	0	0	0	0	0	1.0
[RightHandRing1]
15	-91.03599548	-0.4390000105	-18.65100098	-1.881007671	-2.842177153	32.13928223	1.0
16	-91.03599548	-0.4390000105	-18.65100098	-1.911364079	-2.73450923	32.53551102	1.0
17	-91.03599548	-0.4390000105	-18.65100098	-1.929841399	-2.620204926	32.7763443	1.0
[RightHandRing2]
15	-31.54000092	0	0	-0.6974673271	-2.445861578	31.82814217	1.0
16	-31.54000092	0	0	-0.6958426237	-2.443243742	31.78995895	1.0
17	-31.54000092	0	0	-0.6902534962	-2.434213638	31.65863991	1.0
[RightHandRing3]
15	-29.37700081	0	0	-0.7752191424	-2.566801786	33.60619736	1.0
16	-29.37700081	0	0	-0.7734841704	-2.564199209	33.56744766	1.0
17	-29.37700081	0	0	-0.7675313354	-2.555193901	33.43416977	1.0
[RightHandRing4]
15	-26.47500038	0	0	0	0	0	1.0
16	-26.47500038	0	0	0	0	0	1.0
17	-26.47500038	0	0	0	0	0	1.0
[RightHandMiddle1]
15	-95.32500458	0	0	-2.109861851	-1.323227763	35.10185242	1.0
16	-95.32500458	0	0	-2.132996559	-1.371793389	35.39132309	1.0
17	-95.32500458	0	0	-2.17398715	-1.441367984	35.90216827	1.0
[RightHandMiddle2]
15	-36.98199844	0	0	-0.4625719488	-2.019162893	25.80347824	1.0
16	-36.98199844	0	0	-0.4654266536	-2.025085926	25.88467026	1.0
17	-36.98199844	0	0	-0.4647576213	-2.023705959	25.86572456	1.0
[RightHandMiddle3]
15	-29.50900078	0	0	-0.326084733	-1.710503817	21.6090889	1.0
16	-29.50900078	0	0	-0.3285250068	-1.716673493	21.69115829	1.0
17	-29.50900078	0	0	-0.3279501498	-1.715253711	21.67194748	1.0
[RightHandMiddle4]
15	-28.3390007	0	0.0009999999311	0	0	0	1.0
16	-28.3390007	0	0.0009999999311	0	0	0	1.0
17	-28.3390007	0	0.0009999999311	0	0	0	1.0
[RightHandIndex1]
15	-91.08300018	-5.167999744	22.60099792	-0.9253730178	6.502850533	20.55383301	1.0
16	-91.08300018	-5.167999744	22.60099792	-0.9855856895	6.401038647	21.5112915	1.0
17	-91.08300018	-5.167999744	22.60099792	-1.099763989	6.470460415	22.93024635	1.0
[RightHandIndex2]
15	-36.76399994	0	0	-0.5773100853	-2.240893364	28.8902626	1.0
16	-36.76399994	0	0	-0.5775705576	-2.241360188	28.89681435	1.0
17	-36.76399994	0	0	-0.5752149224	-2.237086773	28.83642578	1.0
[RightHandIndex3]
15	-28.83100128	0	0	-0.2393415272	-1.470874786	18.48312378	1.0
16	-28.83100128	0	0	-0.2395070791	-1.47138536	18.48973656	1.0
17	-28.83100128	0	0	-0.2379378527	-1.466683626	18.42875671	1.0
[RightHandIndex4]
15	-23.92700005	0	0	0	0	0	1.0
16	-23.92700005	0	0	0	0	0	1.0
17	-23.92700005	0	0	0	0	0	1.0
[RightHandThumb1]
15	-24.64799881	-15.72700024	26.82600021	30.15343666	21.14214134	-10.25145817	1.0
16	-24.64799881	-15.72700024	26.82600021	30.15343666	21.14214134	-10.25145817	1.0
17	-24.64799881	-15.72700024	26.82600021	30.15343666	21.14214134	-10.25145817	1.0
[RightHandThumb2]
15	-32.29800034	-18.64699936	18.64699936	10.57320595	-24.7223835	0.3589027226	1.0
16	-32.29800034	-18.64699936	18.64699936	11.24041271	-24.83915901	0.5396891236	1.0
17	-32.29800034	-18.64699936	18.64699936	12.05569553	-23.97880745	0.9499874115	1.0
[RightHandThumb3]
15	-26.52600098	-15.31399918	15.31399918	-11.79661274	-13.78730392	-10.29769516	1.0
16	-26.52600098	-15.31399918	15.31399918	-11.818326	-13.73746395	-10.31144238	1.0
17	-26.52600098	-15.31399918	15.31399918	-11.86214924	-13.63687515	-10.33928204	1.0
[RightHandThumb4]
15	-19.54599953	-11.28499985	11.28499985	0	0	0	1.0
16	-19.54599953	-11.28499985	11.28499985	0	0	0	1.0
17	-19.54599953	-11.28499985	11.28499985	0	0	0	1.0
[LeftUpLeg]
15	82.07800293	-67.51699829	-15.99599934	-13.5637846	6.351809978	-5.914521217	1.0
16	82.07800293	-67.51699829	-15.99599934	-7.516844749	6.66260004	-6.080896854	1.0
17	82.07800293	-67.51699829	-15.99599934	-2.635845423	8.068148613	-6.453602314	1.0
[LeftLeg]
15	0	-443.7049866	2.845999956	24.65748787	-3.657784462	-1.961176157	1.0
16	0	-443.7049866	2.845999956	20.91194916	-5.320629597	-2.644607067	1.0
17	0	-443.7049866	2.845999956	21.23352051	-7.379946709	-3.679377556	1.0
[LeftFoot]
15	0	-444.2789917	-29.8219986	-16.51628113	0.6439179778	6.814430714	1.0
16	0	-444.2789917	-29.8219986	-18.94331741	0.04885475338	8.886572838	1.0
17	0	-444.2789917	-29.8219986	-24.10700798	-3.616285086	12.54905319	1.0
[LeftToeBase]
15	0	-87.28699493	107.1060028	-7.597804546	-1.889122018e-06	1.73461828e-07	1.0
16	0	-87.28699493	107.1060028	-7.226646423	-1.560598321e-05	-2.378872068e-07	1.0
17	0	-87.28699493	107.1060028	-7.594044209	-3.762217239e-05	-1.282149128e-06	1.0
[RightUpLeg]
15	-82.07800293	-67.51699829	-15.99599934	-34.3507843	-0.3740812838	-1.453275323	1.0
16	-82.07800293	-67.51699829	-15.99599934	-36.63983536	-0.4656156003	2.098673105	1.0
17	-82.07800293	-67.51699829	-15.99599934	-37.40507507	-1.057549596	1.248916745	1.0
[RightLeg]
15	0	-443.7049866	2.861999989	41.0718956	1.130961657	2.218309402	1.0
16	0	-443.7049866	2.861999989	25.90021133	0.1895651966	-0.08076893538	1.0
17	0	-443.7049866	2.861999989	9.791115761	-1.230133057	-0.4281272888	1.0
[RightFoot]
15	0	-444.2770081	-29.83799934	-2.235333204	-0.02779749781	5.480057716	1.0
16	0	-444.2770081	-29.83799934	-4.122931004	0.08071944863	6.726726532	1.0
17	0	-444.2770081	-29.83799934	-5.515018463	0.2724348903	7.360378742	1.0
[RightToeBase]
15	0	-87.28699493	107.1060028	-7.316544533	-1.502199666e-05	-4.897686381e-07	1.0
16	0	-87.28699493	107.1060028	-6.800675392	-1.03920338e-05	-3.394900432e-06	1.0
17	0	-87.28699493	107.1060028	-7.452877998	3.003705024e-05	-3.898861905e-06	1.0
[EndOfFile]
